<?xml version="1.0" encoding="UTF-8" standalone="no"?>
<svg
   xmlns:dc="http://purl.org/dc/elements/1.1/"
   xmlns:cc="http://creativecommons.org/ns#"
   xmlns:rdf="http://www.w3.org/1999/02/22-rdf-syntax-ns#"
   xmlns:svg="http://www.w3.org/2000/svg"
   xmlns="http://www.w3.org/2000/svg"
   xmlns:xlink="http://www.w3.org/1999/xlink"
   xmlns:sodipodi="http://sodipodi.sourceforge.net/DTD/sodipodi-0.dtd"
   xmlns:inkscape="http://www.inkscape.org/namespaces/inkscape"
   width="928.46167"
   height="660.89459"
   viewBox="-300 -300 1417.3228 0"
   id="svg2"
   version="1.1"
   inkscape:version="0.91 r13725"
   sodipodi:docname="logopull.svg">
  <metadata
     id="metadata29">
    <rdf:RDF>
      <cc:Work
         rdf:about="">
        <dc:format>image/svg+xml</dc:format>
        <dc:type
           rdf:resource="http://purl.org/dc/dcmitype/StillImage" />
        <dc:title />
      </cc:Work>
    </rdf:RDF>
  </metadata>
  <sodipodi:namedview
     pagecolor="#ffffff"
     bordercolor="#666666"
     borderopacity="1"
     objecttolerance="10"
     gridtolerance="10"
     guidetolerance="10"
     inkscape:pageopacity="0"
     inkscape:pageshadow="2"
     inkscape:window-width="1916"
     inkscape:window-height="1035"
     id="namedview27"
     showgrid="false"
     inkscape:zoom="0.5"
     inkscape:cx="-22.83035"
     inkscape:cy="-81.605825"
     inkscape:window-x="15"
     inkscape:window-y="0"
     inkscape:window-maximized="0"
     inkscape:current-layer="svg2"
     showguides="true"
     inkscape:connector-spacing="3"
     inkscape:guide-bbox="true"
     units="mm"
     width="100mm"
     fit-margin-top="0"
     fit-margin-left="0"
     fit-margin-right="0"
     fit-margin-bottom="0" />
  <defs
     id="defs4">
    <linearGradient
       inkscape:collect="always"
       id="linearGradient4590">
      <stop
         style="stop-color:#00ff00;stop-opacity:1;"
         offset="0"
         id="stop4592" />
      <stop
         style="stop-color:#00ff00;stop-opacity:0;"
         offset="1"
         id="stop4594" />
    </linearGradient>
    <clipPath
       id="shield_cut">
      <path
         id="shield"
         d="m -298.5,-298.5 597,0 0,258.5 C 298.5,246.2 0,358.39 0,358.39 0,358.39 -298.5,246.2 -298.5,-40 Z"
         inkscape:connector-curvature="0" />
    </clipPath>
    <linearGradient
       inkscape:collect="always"
       xlink:href="#linearGradient4590"
       id="linearGradient4596"
       x1="-42.320415"
       y1="-54.127899"
       x2="51.899158"
       y2="-49.96471"
       gradientUnits="userSpaceOnUse"
       gradientTransform="translate(-463.16965,-298.5)" />
  </defs>
  <g
     id="layer4"
     inkscape:label="Fond écu"
     inkscape:groupmode="layer"
     style="display:none;opacity:0.66699997"
     transform="translate(463.16965,298.5)">
    <use
       xlink:href="#shield"
       id="use18"
       style="fill:#3011ff;fill-opacity:1"
       x="0"
       y="0"
       width="100%"
       height="100%" />
  </g>
  <g
     id="layer3"
     inkscape:label="Meubles"
     inkscape:groupmode="layer"
     style="display:none;opacity:0.6"
     transform="translate(463.16965,298.5)">
    <g
       id="g5262"
       transform="matrix(1.1055452,0,0,1.1055452,-288.18935,-44.49621)"
       style="fill:#ff0000">
      <g
         transform="translate(-152.043,-747.812)"
         style="display:none;fill:#ff0000"
         id="layer1-6"
         inkscape:label="base" />
      <path
         style="fill:#ff0000;fill-opacity:1;stroke:#000000;stroke-width:1px;stroke-linecap:butt;stroke-linejoin:miter;stroke-opacity:1"
         d="m 1.50019,18.33497 20.70812,63.63962 136.87567,17.17259 c -0.77936,4.56965 -1.96419,8.80142 0,15.65736 L 34.33014,126.4213 59.58396,175.4137 161.10429,137.0279 c 1.21122,5.32085 2.95361,10.24333 6.06091,14.14213 l -77.78174,57.5787 35.86041,24.24366 52.52794,-63.13453 c 3.2614,3.53276 5.70564,7.41574 12.12183,9.59645 l -28.28427,63.13453 33.84011,7.57614 11.61675,-60.10407 c 22.62766,8.47692 36.71204,-23.62482 15.15229,-31.81981 -44.70399,-15.06616 -57.9532,-50.41237 -30.30458,-112.12693 -9.50659,7.03489 -18.64525,15.81747 -26.26396,31.8198 z"
         id="path2997"
         inkscape:connector-curvature="0"
         sodipodi:nodetypes="ccccccccccccccccccc" />
      <path
         sodipodi:type="inkscape:offset"
         inkscape:radius="0"
         inkscape:original="M 261.70312 -39.564453 L 221.53711 41.900391 L 302.1875 41.900391 L 261.70312 -39.564453 z M 302.1875 41.900391 L 261.70312 122.26562 L 342.40625 122.26562 L 302.1875 41.900391 z M 221.53711 41.900391 L 221.16992 41.900391 L 221.35547 42.269531 L 221.53711 41.900391 z M 221.35547 42.269531 L 181.91992 122.25391 L 261.70312 122.25391 L 221.35547 42.269531 z "
         style="fill:#ff0000;fill-opacity:1;stroke:none"
         id="path5407"
         d="m 261.70312,-39.564453 -40.16601,81.464844 80.65039,0 -40.48438,-81.464844 z m 40.48438,81.464844 -40.48438,80.365229 80.70313,0 -40.21875,-80.365229 z m -80.65039,0 -0.36719,0 0.18555,0.36914 0.18164,-0.36914 z m -0.18164,0.36914 -39.43555,79.984379 79.7832,0 -40.34765,-79.984379 z" />
      <path
         style="fill:#ff0000;fill-opacity:1;stroke:#000000;stroke-width:1px;stroke-linecap:butt;stroke-linejoin:miter;stroke-opacity:1"
         d="m 210.09669,302.18781 5.05076,-16.92 -29.7995,0 8.5863,22.9809 -30.80966,-24.2436 c -6.03084,-4.7394 -6.25713,-9.8589 1.51523,-9.5964 l 39.90103,0 15.65736,-34.34525 c 5.00949,-10.16543 22.48921,-4.25882 16.16244,8.08122 l -16.66751,26.26403 7.57614,0 c 6.48544,-0.2161 6.86992,5.8992 3.03046,9.5964 z"
         id="path3769"
         inkscape:connector-curvature="0"
         sodipodi:nodetypes="ccccccccccccc" />
      <path
         style="fill:#ff0000;fill-opacity:1;stroke:#000000;stroke-width:1px;stroke-linecap:butt;stroke-linejoin:miter;stroke-opacity:1"
         d="m 262.11955,309.76401 -17.67768,-47.8405 c 3.88676,-5.9659 6.53238,-14.50965 6.06092,-29.52728 -7.62431,-9.91628 -17.01034,-14.19505 -26.26397,-18.89749 7.25366,-6.72986 15.01687,-14.0911 17.1726,-25.54269 1.78103,-10.32317 6.48017,-18.62611 12.6269,-25.92687 l 8.08123,-23.48605 7.57614,23.48605 c 6.67205,7.26026 11.16502,15.97325 13.79703,25.92687 2.4595,10.35878 8.61351,18.54432 16.78571,25.54269 -9.30479,5.37053 -19.62068,8.84526 -26.42857,18.89749 -2.22921,11.56878 0.34607,20.97558 4.82143,29.52728 z"
         id="path3771"
         inkscape:connector-curvature="0"
         sodipodi:nodetypes="ccccccccccccc" />
      <path
         style="fill:#ff0000;fill-opacity:1;stroke:#000000;stroke-width:1px;stroke-linecap:butt;stroke-linejoin:miter;stroke-opacity:1"
         d="M 524.30113,18.33497 503.59301,81.97459 366.71734,99.14718 c 0.77936,4.56965 1.96419,8.80142 0,15.65736 l 124.75384,11.61676 -25.25382,48.9924 -101.52033,-38.3858 c -1.21122,5.32085 -2.95361,10.24333 -6.06091,14.14213 l 77.78174,57.5787 -35.86041,24.24366 -52.52794,-63.13453 c -3.2614,3.53276 -5.70564,7.41574 -12.12183,9.59645 l 28.28427,63.13453 -33.84011,7.57614 -11.61675,-60.10407 c -22.62766,8.47692 -36.71204,-23.62482 -15.15229,-31.81981 44.70399,-15.06616 57.9532,-50.41237 30.30458,-112.12693 9.50659,7.03489 18.64525,15.81747 26.26396,31.8198 z"
         id="path2997-0"
         inkscape:connector-curvature="0"
         sodipodi:nodetypes="ccccccccccccccccccc" />
      <path
         style="fill:#ff0000;fill-opacity:1;stroke:#000000;stroke-width:1px;stroke-linecap:butt;stroke-linejoin:miter;stroke-opacity:1"
         d="m 314.88156,302.18781 -5.05076,-16.92 29.7995,0 -8.5863,22.9809 30.80967,-24.2436 c 6.03084,-4.7394 6.25713,-9.8589 -1.51523,-9.5964 l -39.90104,0 -15.65736,-34.34525 c -5.00949,-10.16543 -22.48921,-4.25882 -16.16244,8.08124 l 16.66751,26.26401 -7.57614,0 c -6.48544,-0.2161 -6.86992,5.8992 -3.03046,9.5964 z"
         id="path3769-7"
         inkscape:connector-curvature="0"
         sodipodi:nodetypes="ccccccccccccc" />
    </g>
  </g>
  <g
     inkscape:groupmode="layer"
     id="layer5"
     inkscape:label="travail"
     style="display:inline;opacity:1"
     transform="translate(463.16965,298.5)">
    <text
       xml:space="preserve"
       style="font-style:normal;font-variant:normal;font-weight:normal;font-stretch:normal;font-size:40px;line-height:125%;font-family:'.Diwan Kufi PUA';-inkscape-font-specification:'.Diwan Kufi PUA';letter-spacing:0px;word-spacing:0px;fill:#000000;fill-opacity:1;stroke:none;stroke-width:1px;stroke-linecap:butt;stroke-linejoin:miter;stroke-opacity:1"
       x="58.029449"
       y="-190.12457"
       id="text5292"
       sodipodi:linespacing="125%"
       inkscape:export-xdpi="143"
       inkscape:export-ydpi="143"><tspan
         sodipodi:role="line"
         id="tspan5294"
         x="58.029449"
         y="-190.12457" /></text>
    <path
       sodipodi:nodetypes="csscscscssc"
       inkscape:connector-curvature="0"
       id="path5373"
       d="m -106.73379,-265.61721 c -32.67487,23.62009 -159.59722,78.71276 -295.92525,81.15278 -78.43903,1.40391 -76.60374,-66.68946 1.4957,-68.23789 155.06484,-3.07438 106.28717,262.3413889 35.29266,261.4632812 68.03154,2.1116998 97.66814,113.4195588 137.06466,171.5545888 54.75543,80.79922 174.924035,156.46474 229.8672133,179.31072 C 56.004365,336.03284 176.17298,260.36732 230.92841,179.5681 270.32493,121.43307 299.96153,10.125209 367.99307,8.0135094 296.99856,8.8916171 248.22089,-256.52415 403.28573,-253.44977 c 78.09944,1.54843 79.93473,69.6418 1.4957,68.23789 -136.32803,-2.44002 -263.25038,-57.53269 -295.92525,-81.15278"
       style="fill:none;fill-rule:evenodd;stroke:#000000;stroke-width:5.0999999;stroke-linecap:butt;stroke-linejoin:miter;stroke-miterlimit:4;stroke-dasharray:none;stroke-opacity:1"
       inkscape:export-xdpi="143"
       inkscape:export-ydpi="143" />
    <path
       transform="matrix(1.1055452,0,0,1.1055452,-288.29775,-44.49622)"
       d="m 261.70312,-39.564453 -40.16601,81.464844 80.65039,0 -40.48438,-81.464844 z m 40.48438,81.464844 -40.48438,80.365229 80.70313,0 -40.21875,-80.365229 z m -80.65039,0 -0.36719,0 0.18555,0.36914 0.18164,-0.36914 z m -0.18164,0.36914 -39.43555,79.984379 79.7832,0 -40.34765,-79.984379 z"
       id="path5420"
       style="display:inline;opacity:1;fill:none;fill-opacity:1;stroke:#000000;stroke-width:4.52265549;stroke-linejoin:bevel;stroke-miterlimit:4;stroke-dasharray:none;stroke-opacity:1"
       inkscape:original="M 261.70312 -39.564453 L 221.53711 41.900391 L 302.1875 41.900391 L 261.70312 -39.564453 z M 302.1875 41.900391 L 261.70312 122.26562 L 342.40625 122.26562 L 302.1875 41.900391 z M 221.53711 41.900391 L 221.16992 41.900391 L 221.35547 42.269531 L 221.53711 41.900391 z M 221.35547 42.269531 L 181.91992 122.25391 L 261.70312 122.25391 L 221.35547 42.269531 z "
       inkscape:radius="0"
       sodipodi:type="inkscape:offset"
       inkscape:export-xdpi="143"
       inkscape:export-ydpi="143" />
    <path
       inkscape:connector-curvature="0"
       id="path5425"
       d="m 48.951201,-10.201747 9.587707,-8.93878 -108.363318,0.41086 108.265574,-0.40193 -9.489963,-8.12598"
       style="fill:url(#linearGradient4596);fill-opacity:1;fill-rule:evenodd;stroke:#000000;stroke-width:3.61173677;stroke-linecap:round;stroke-linejoin:round;stroke-miterlimit:0;stroke-dasharray:none;stroke-dashoffset:0;stroke-opacity:1"
       sodipodi:nodetypes="ccccc"
       inkscape:export-xdpi="143"
       inkscape:export-ydpi="143" />
    <flowRoot
       xml:space="preserve"
       id="flowRoot5779"
       style="font-style:normal;font-variant:normal;font-weight:normal;font-stretch:normal;font-size:40px;line-height:125%;font-family:'.Diwan Kufi PUA';-inkscape-font-specification:'.Diwan Kufi PUA';letter-spacing:0px;word-spacing:0px;fill:#000000;fill-opacity:1;stroke:none;stroke-width:1px;stroke-linecap:butt;stroke-linejoin:miter;stroke-opacity:1"
       transform="translate(-300,-300)"
       inkscape:export-xdpi="143"
       inkscape:export-ydpi="143"><flowRegion
         id="flowRegion5781"><rect
           id="rect5783"
           width="91.936577"
           height="73.250282"
           x="316.91959"
           y="64.280861"
           style="font-style:normal;font-variant:normal;font-weight:normal;font-stretch:normal;font-family:'.Diwan Kufi PUA';-inkscape-font-specification:'.Diwan Kufi PUA'" /></flowRegion><flowPara
         id="flowPara5785" /></flowRoot>    <g
       transform="translate(7.4745187,-63.533409)"
       style="font-style:normal;font-weight:normal;font-size:464.69851685px;line-height:125%;font-family:Sans;letter-spacing:0px;word-spacing:0px;fill:#000000;fill-opacity:1;stroke:none;stroke-width:1px;stroke-linecap:butt;stroke-linejoin:miter;stroke-opacity:1"
       id="flowRoot5798"
       inkscape:export-xdpi="143"
       inkscape:export-ydpi="143" />
    <path
       style="fill:none;fill-rule:evenodd;stroke:#000000;stroke-width:6;stroke-linecap:round;stroke-linejoin:miter;stroke-miterlimit:4;stroke-dasharray:none;stroke-opacity:1"
       d="M 290.2439,-24.07056 110.04628,41.38116 162.62674,59.729552 116.61884,82.45965 254.09483,95.87862"
       id="path5809"
       inkscape:connector-curvature="0"
       sodipodi:nodetypes="ccccc"
       inkscape:export-xdpi="143"
       inkscape:export-ydpi="143" />
    <flowRoot
       xml:space="preserve"
       id="flowRoot5811"
       style="font-style:normal;font-variant:normal;font-weight:normal;font-stretch:normal;font-size:40px;line-height:125%;font-family:'.Diwan Kufi PUA';-inkscape-font-specification:'.Diwan Kufi PUA';letter-spacing:0px;word-spacing:0px;fill:#000000;fill-opacity:1;stroke:none;stroke-width:1px;stroke-linecap:butt;stroke-linejoin:miter;stroke-opacity:1"
       transform="translate(-300,-300)"
       inkscape:export-xdpi="143"
       inkscape:export-ydpi="143"><flowRegion
         id="flowRegion5813"><rect
           id="rect5815"
           width="72.571991"
           height="42.447769"
           x="476.23657"
           y="236.61775"
           style="font-style:normal;font-variant:normal;font-weight:normal;font-stretch:normal;font-family:'.Diwan Kufi PUA';-inkscape-font-specification:'.Diwan Kufi PUA'" /></flowRegion><flowPara
         id="flowPara5817">ssuauie antonisttsnab</flowPara><flowPara
         id="flowPara5819" /></flowRoot>    <text
       xml:space="preserve"
       style="font-style:normal;font-variant:normal;font-weight:normal;font-stretch:normal;font-size:64.99999762%;line-height:125%;font-family:'.Diwan Kufi PUA';-inkscape-font-specification:'.Diwan Kufi PUA';letter-spacing:0px;word-spacing:0px;baseline-shift:super;fill:#000000;fill-opacity:1;stroke:none;stroke-width:1px;stroke-linecap:butt;stroke-linejoin:miter;stroke-opacity:1"
       x="233.4726"
       y="-38.735168"
       id="text5821"
       sodipodi:linespacing="125%"
       inkscape:export-xdpi="143"
       inkscape:export-ydpi="143"><tspan
         sodipodi:role="line"
         id="tspan5823"
         x="233.4726"
         y="-38.735168" /></text>
    <text
       xml:space="preserve"
       style="font-style:normal;font-variant:normal;font-weight:normal;font-stretch:normal;font-size:64.99999762%;line-height:125%;font-family:'.Diwan Kufi PUA';-inkscape-font-specification:'.Diwan Kufi PUA';letter-spacing:0px;word-spacing:0px;baseline-shift:super;fill:#000000;fill-opacity:1;stroke:none;stroke-width:1px;stroke-linecap:butt;stroke-linejoin:miter;stroke-opacity:1"
       x="231.28174"
       y="-45.581573"
       id="text5825"
       sodipodi:linespacing="125%"
       inkscape:export-xdpi="143"
       inkscape:export-ydpi="143"><tspan
         sodipodi:role="line"
         x="231.28174"
         y="-45.581573"
         id="tspan5829" /></text>
    <text
       xml:space="preserve"
       style="font-style:normal;font-variant:normal;font-weight:normal;font-stretch:normal;line-height:125%;font-family:'.Diwan Kufi PUA';-inkscape-font-specification:'.Diwan Kufi PUA';letter-spacing:0px;word-spacing:0px;baseline-shift:baseline;fill:#000000;fill-opacity:1;stroke:none;stroke-width:1px;stroke-linecap:butt;stroke-linejoin:miter;stroke-opacity:1"
       x="204.16992"
       y="-24.220764"
       id="text5837"
       sodipodi:linespacing="125%"
       inkscape:export-xdpi="143"
       inkscape:export-ydpi="143"><tspan
         sodipodi:role="line"
         id="tspan5839"
         x="204.16992"
         y="-24.220764" /></text>
    <path
       style="fill:none;fill-rule:evenodd;stroke:#000000;stroke-width:3;stroke-linecap:butt;stroke-linejoin:miter;stroke-miterlimit:4;stroke-dasharray:none;stroke-opacity:1"
       d="m 267.98003,9.792235 15.0722,-10.76586 -12.91902,39.83367"
       id="path4851"
       inkscape:connector-curvature="0"
       inkscape:export-xdpi="143"
       inkscape:export-ydpi="143" />
    <path
       style="fill:none;fill-rule:evenodd;stroke:#000000;stroke-width:3;stroke-linecap:butt;stroke-linejoin:miter;stroke-miterlimit:4;stroke-dasharray:none;stroke-opacity:1"
       d="m 255.7257,47.752534 20.16147,-2.641197"
       id="path4853"
       inkscape:connector-curvature="0"
       sodipodi:nodetypes="cc"
       inkscape:export-xdpi="143"
       inkscape:export-ydpi="143" />
    <g
       style="font-style:normal;font-weight:normal;font-size:40px;line-height:125%;font-family:Sans;letter-spacing:0px;word-spacing:0px;fill:#000000;fill-opacity:1;stroke:none;stroke-width:1px;stroke-linecap:butt;stroke-linejoin:miter;stroke-opacity:1"
       id="text4855"
       inkscape:export-xdpi="143"
       inkscape:export-ydpi="143"
       transform="translate(2,96)">
      <path
         d="m 259.07078,-36.45786 3.16162,0 -5.43575,15.705566 12.2392,-8.254394 4.01611,0 -13.25075,8.955078 7.05336,10.1855465 -4.10157,0 -6.48869,-9.3481445 -3.23543,9.3481445 -3.16162,0 9.20352,-26.5917965 z"
         style="font-style:normal;font-size:35px"
         id="path4860"
         inkscape:connector-curvature="0" />
    </g>
    <g
       id="g4585"
       style="stroke-width:6;stroke-miterlimit:4;stroke-dasharray:none"
       transform="translate(2,0)"
       inkscape:export-xdpi="143"
       inkscape:export-ydpi="143">
      <path
         sodipodi:nodetypes="cc"
         inkscape:connector-curvature="0"
         id="path4862"
         d="M 81.193167,153.00339 C 96.329635,146.07311 110.0599,120.25235 112.58981,105.87117"
         style="fill:none;fill-rule:evenodd;stroke:#000000;stroke-width:6;stroke-linecap:round;stroke-linejoin:miter;stroke-miterlimit:4;stroke-dasharray:none;stroke-opacity:1" />
      <path
         inkscape:connector-curvature="0"
         id="path4864"
         d="m 108.0351,124.8329 c 81.29694,60.50005 81.83712,60.365 81.83712,60.365"
         style="fill:none;fill-rule:evenodd;stroke:#000000;stroke-width:5.69115162;stroke-linecap:round;stroke-linejoin:miter;stroke-miterlimit:4;stroke-dasharray:none;stroke-opacity:1" />
      <path
         inkscape:connector-curvature="0"
         id="path4866"
         d="m 93.94717,143.49041 c 57.94597,69.76296 56.97809,68.93744 56.97809,68.93744"
         style="fill:none;fill-rule:evenodd;stroke:#000000;stroke-width:6;stroke-linecap:round;stroke-linejoin:miter;stroke-miterlimit:4;stroke-dasharray:none;stroke-opacity:1"
         sodipodi:nodetypes="cc" />
    </g>
    <flowRoot
       transform="matrix(0.669827,0,0,0.669827,-299.48965,-166.55639)"
       style="font-style:normal;font-weight:normal;font-size:37.32307053px;line-height:125%;font-family:Sans;letter-spacing:0px;word-spacing:0px;fill:#000000;fill-opacity:1;stroke:none;stroke-width:1px;stroke-linecap:butt;stroke-linejoin:miter;stroke-opacity:1"
       id="flowRoot4556"
       xml:space="preserve"
       inkscape:export-xdpi="143"
       inkscape:export-ydpi="143"><flowRegion
         id="flowRegion4558"><rect
           style="font-size:37.32307053px"
           y="169.55582"
           x="30.90036"
           height="76.854736"
           width="652.86908"
           id="rect4560" /></flowRegion><flowPara
         style="font-style:italic;font-variant:normal;font-weight:normal;font-stretch:normal;font-size:37.32307053px;font-family:Zapfino;-inkscape-font-specification:'Zapfino Italic'"
         id="flowPara4562">La Martinière </flowPara></flowRoot>    <text
       sodipodi:linespacing="125%"
       id="text4568"
       y="-34"
       x="81"
       style="font-style:normal;font-weight:normal;font-size:25px;line-height:125%;font-family:Sans;letter-spacing:0px;word-spacing:0px;fill:#000000;fill-opacity:1;stroke:none;stroke-width:1px;stroke-linecap:butt;stroke-linejoin:miter;stroke-opacity:1"
       xml:space="preserve"
       inkscape:export-xdpi="143"
       inkscape:export-ydpi="143"><tspan
         style="font-style:italic;font-variant:normal;font-weight:normal;font-stretch:normal;font-size:25px;font-family:zapfino;-inkscape-font-specification:'zapfino Italic'"
         y="-34"
         x="81"
         id="tspan4570"
         sodipodi:role="line">Monplaisir </tspan></text>
    <flowRoot
       xml:space="preserve"
       id="flowRoot4248"
       style="font-style:italic;font-variant:normal;font-weight:normal;font-stretch:normal;font-size:40px;line-height:125%;font-family:Zapfino;-inkscape-font-specification:'Zapfino Italic';letter-spacing:0px;word-spacing:0px;fill:#000000;fill-opacity:1;stroke:none;stroke-width:1px;stroke-linecap:butt;stroke-linejoin:miter;stroke-opacity:1"
       inkscape:export-xdpi="143"
       inkscape:export-ydpi="143"><flowRegion
         id="flowRegion4250"><rect
           id="rect4252"
           width="266.09286"
           height="73.997734"
           x="109.12798"
           y="136.78369"
           style="font-style:italic;font-variant:normal;font-weight:normal;font-stretch:normal;font-family:Zapfino;-inkscape-font-specification:'Zapfino Italic'" /></flowRegion><flowPara
         id="flowPara4254" /></flowRoot>    <flowRoot
       xml:space="preserve"
       id="flowRoot4256"
       style="font-style:italic;font-variant:normal;font-weight:normal;font-stretch:normal;font-size:40px;line-height:125%;font-family:Zapfino;-inkscape-font-specification:'Zapfino Italic';letter-spacing:0px;word-spacing:0px;fill:#000000;fill-opacity:1;stroke:none;stroke-width:1px;stroke-linecap:butt;stroke-linejoin:miter;stroke-opacity:1"
       inkscape:export-xdpi="143"
       inkscape:export-ydpi="143"><flowRegion
         id="flowRegion4258"><rect
           id="rect4260"
           width="285.52661"
           height="109.12798"
           x="33.635334"
           y="113.61269"
           style="font-style:italic;font-variant:normal;font-weight:normal;font-stretch:normal;font-family:Zapfino;-inkscape-font-specification:'Zapfino Italic'" /></flowRegion><flowPara
         id="flowPara4262" /></flowRoot>    <path
       inkscape:export-ydpi="143"
       inkscape:export-xdpi="143"
       sodipodi:nodetypes="ccccc"
       inkscape:connector-curvature="0"
       id="path4268"
       d="m -284.27347,-24.807806 180.19762,65.45172 -52.58046,18.348392 46.0079,22.730098 -137.47599,13.418974"
       style="fill:none;fill-rule:evenodd;stroke:#000000;stroke-width:6;stroke-linecap:round;stroke-linejoin:miter;stroke-miterlimit:4;stroke-dasharray:none;stroke-opacity:1" />
    <path
       inkscape:export-ydpi="143"
       inkscape:export-xdpi="143"
       inkscape:connector-curvature="0"
       id="path4212"
       d="m -261.95381,9.792235 -15.0722,-10.76586 12.91902,39.83367"
       style="fill:none;fill-rule:evenodd;stroke:#000000;stroke-width:3;stroke-linecap:butt;stroke-linejoin:miter;stroke-miterlimit:4;stroke-dasharray:none;stroke-opacity:1" />
    <path
       inkscape:export-ydpi="143"
       inkscape:export-xdpi="143"
       sodipodi:nodetypes="cc"
       inkscape:connector-curvature="0"
       id="path4214"
       d="m -249.69948,47.752534 -20.16147,-2.641197"
       style="fill:none;fill-rule:evenodd;stroke:#000000;stroke-width:3;stroke-linecap:butt;stroke-linejoin:miter;stroke-miterlimit:4;stroke-dasharray:none;stroke-opacity:1" />
    <g
       transform="matrix(-1,0,0,1,4.0262244,96)"
       inkscape:export-ydpi="143"
       inkscape:export-xdpi="143"
       id="g4216"
       style="font-style:normal;font-weight:normal;font-size:40px;line-height:125%;font-family:Sans;letter-spacing:0px;word-spacing:0px;fill:#000000;fill-opacity:1;stroke:none;stroke-width:1px;stroke-linecap:butt;stroke-linejoin:miter;stroke-opacity:1">
      <path
         inkscape:connector-curvature="0"
         id="path4218"
         style="font-style:normal;font-size:35px"
         d="m 259.07078,-36.45786 3.16162,0 -5.43575,15.705566 12.2392,-8.254394 4.01611,0 -13.25075,8.955078 7.05336,10.1855465 -4.10157,0 -6.48869,-9.3481445 -3.23543,9.3481445 -3.16162,0 9.20352,-26.5917965 z" />
    </g>
    <g
       id="g4249"
       transform="matrix(1.25,0,0,-1.25,342.74278,237.26424)"
       inkscape:export-xdpi="143"
       inkscape:export-ydpi="143" />
    <path
       d="m 4.5281106,169.54641 c 0,-3.09285 0,-4.30329 8.6065374,-4.30329 l 2.958587,0 0,-2.82397 c -3.227468,0.26902 -11.5651244,0.26902 -15.3305115,0.26902 -3.6980761,0 -12.1029025,0 -15.3976175,-0.26902 l 0,2.82397 3.025676,0 c 8.6065743,0 8.6065743,1.14311 8.6065743,4.30329 l 0,40.27612 c -11.9011903,-3.16034 -12.3718823,-17.14597 -12.3718823,-22.9957 -0.06728,-11.02709 -4.034327,-12.70811 -8.068633,-12.70811 l -3.361966,0 c -1.344764,0 -2.218875,0 -2.218875,1.00852 0,0.40347 0.26896,0.8741 0.806882,0.9414 2.958505,0.40345 5.24463,1.68102 5.31186,12.37191 0,2.08435 0.26896,9.2118 4.639476,15.33053 3.563637,4.90833 9.077249,7.53068 15.2631383,8.33756 l 0,63.54439 c 0,3.09299 0,4.37052 -8.6065743,4.37052 l -3.025676,0 0,2.82405 c 3.294715,-0.26895 11.6322503,-0.26895 15.3304682,-0.26895 3.6980974,0 12.1701928,0 15.3976608,0.26895 l 0,-2.82405 -2.958587,0 c -8.6065374,0 -8.6065374,-1.14305 -8.6065374,-4.37052 l 0,-63.54439 c 6.5222034,-0.80688 12.0357544,-3.56367 15.5993914,-8.27043 4.706749,-6.45492 4.77406,-13.58219 4.77406,-17.6166 0,-1.412 0.06708,-9.48065 4.975609,-10.15297 0.537902,-0.0673 1.210263,-0.13454 1.210263,-0.9414 0,-1.00852 -0.739652,-1.00852 -2.218773,-1.00852 l -3.429198,0 c -3.496485,0 -8.001526,0.60521 -8.068656,13.78393 -0.06726,9.95141 -3.093027,19.5665 -12.8426964,21.91988 l 0,-40.27612"
       style="fill:#000000;fill-opacity:1;fill-rule:nonzero;stroke:none"
       id="path4259"
       inkscape:connector-curvature="0"
       sodipodi:nodetypes="csccsccssccsssccccssccsccssccscsssccc"
       inkscape:export-xdpi="143"
       inkscape:export-ydpi="143" />
    <path
       style="fill:none;fill-rule:evenodd;stroke:#000000;stroke-width:6;stroke-linecap:round;stroke-linejoin:miter;stroke-miterlimit:4;stroke-dasharray:none;stroke-opacity:1"
       d="M -18.643952,153.12087 1.0023563,113.23667 20.963707,153.05232"
       id="path4432"
       inkscape:connector-curvature="0"
       sodipodi:nodetypes="ccc"
       inkscape:export-xdpi="143"
       inkscape:export-ydpi="143" />
    <g
       id="g4504"
       transform="matrix(2.6253195,0,0,-2.6253195,392.52962,11.149905)"
       inkscape:export-xdpi="143"
       inkscape:export-ydpi="143" />
    <path
       d="m 63.721535,265.6012 c 3.84476,9.85666 8.38869,24.32707 9.92665,26.49415 1.468,2.02726 2.44672,2.02726 4.96325,2.02726 l 2.09721,0 c 0.90873,-0.0699 1.0485,-0.62915 1.0485,-0.90877 0,-0.27962 -0.20974,-0.48935 -0.48926,-0.83887 -0.90875,-1.04859 -1.53799,-2.4467 -2.16701,-4.33415 l -19.22406,-53.68754 c -1.95744,-5.45269 -7.06045,-6.71092 -11.53449,-6.71092 -0.41943,0 -1.67774,0 -1.67774,1.04868 0,0.7688 0.76897,0.97854 0.83887,0.97854 3.14575,0.55924 3.77495,1.11849 6.15169,7.54989 l 9.15767,25.6553 -26.07481,25.79521 c -1.11849,1.11849 -1.67774,1.67773 -1.67774,2.93603 0,1.60783 1.3282,2.72632 2.86613,2.72632 1.46801,0 2.30688,-1.04859 3.07584,-1.95736 l 22.7193,-26.77377"
       style="fill:#000000;fill-opacity:1;fill-rule:nonzero;stroke:none"
       id="path4514"
       inkscape:connector-curvature="0"
       inkscape:export-xdpi="143"
       inkscape:export-ydpi="143" />
    <path
       inkscape:connector-curvature="0"
       id="path4536"
       style="fill:#000000;fill-opacity:1;fill-rule:nonzero;stroke:none"
       d="m -56.904125,265.6012 c -3.84476,9.85666 -8.38869,24.32707 -9.92665,26.49415 -1.468,2.02726 -2.44672,2.02726 -4.96325,2.02726 l -2.09721,0 c -0.90873,-0.0699 -1.0485,-0.62915 -1.0485,-0.90877 0,-0.27962 0.20974,-0.48935 0.48926,-0.83887 0.90875,-1.04859 1.53799,-2.4467 2.16701,-4.33415 l 19.22406,-53.68754 c 1.95744,-5.45269 7.06045,-6.71092 11.53449,-6.71092 0.41943,0 1.67774,0 1.67774,1.04868 0,0.7688 -0.76897,0.97854 -0.83887,0.97854 -3.14575,0.55924 -3.77495,1.11849 -6.15169,7.54989 l -9.15767,25.6553 26.07481,25.79521 c 1.11849,1.11849 1.67774,1.67773 1.67774,2.93603 0,1.60783 -1.3282,2.72632 -2.86613,2.72632 -1.46801,0 -2.30688,-1.04859 -3.07584,-1.95736 l -22.7193,-26.77377"
       inkscape:export-xdpi="143"
       inkscape:export-ydpi="143" />
    <g
       style="stroke-width:6;stroke-miterlimit:4;stroke-dasharray:none"
       id="g5196"
       transform="matrix(-1,0,0,1,5.3969942,1.2165286)"
       inkscape:export-xdpi="143"
       inkscape:export-ydpi="143">
      <path
         style="fill:none;fill-rule:evenodd;stroke:#000000;stroke-width:6;stroke-linecap:round;stroke-linejoin:miter;stroke-miterlimit:4;stroke-dasharray:none;stroke-opacity:1"
         d="M 81.193167,153.00339 C 96.329635,146.07311 110.0599,120.25235 112.58981,105.87117"
         id="path5198"
         inkscape:connector-curvature="0"
         sodipodi:nodetypes="cc" />
      <path
         style="fill:none;fill-rule:evenodd;stroke:#000000;stroke-width:5.69115162;stroke-linecap:round;stroke-linejoin:miter;stroke-miterlimit:4;stroke-dasharray:none;stroke-opacity:1"
         d="m 108.0351,124.8329 c 81.29694,60.50005 81.83712,60.365 81.83712,60.365"
         id="path5200"
         inkscape:connector-curvature="0" />
      <path
         sodipodi:nodetypes="cc"
         style="fill:none;fill-rule:evenodd;stroke:#000000;stroke-width:6;stroke-linecap:round;stroke-linejoin:miter;stroke-miterlimit:4;stroke-dasharray:none;stroke-opacity:1"
         d="m 93.94717,143.49041 c 57.94597,69.76296 56.97809,68.93744 56.97809,68.93744"
         id="path5202"
         inkscape:connector-curvature="0" />
    </g>
    <flowRoot
       xml:space="preserve"
       id="flowRoot5204"
       style="font-style:normal;font-weight:normal;font-size:40px;line-height:125%;font-family:Sans;letter-spacing:0px;word-spacing:0px;fill:#000000;fill-opacity:1;stroke:none;stroke-width:1px;stroke-linecap:butt;stroke-linejoin:miter;stroke-opacity:1"
       transform="matrix(1.0214983,0,0,1.0214983,-408.06678,-277.00033)"
       inkscape:export-xdpi="143"
       inkscape:export-ydpi="143"><flowRegion
         id="flowRegion5206"><rect
           id="rect5208"
           width="523.58038"
           height="84.715561"
           x="148"
           y="100" /></flowRegion><flowPara
         id="flowPara5212">ton (sur)nom (d'étoile) ici</flowPara></flowRoot>    <flowRoot
       xml:space="preserve"
       id="flowRoot5216"
       style="font-style:normal;font-weight:normal;font-size:40px;line-height:125%;font-family:Sans;letter-spacing:0px;word-spacing:0px;fill:#000000;fill-opacity:1;stroke:none;stroke-width:1px;stroke-linecap:butt;stroke-linejoin:miter;stroke-opacity:1"
       transform="translate(752.89453,-59.969966)"
       inkscape:export-xdpi="143"
       inkscape:export-ydpi="143"><flowRegion
         id="flowRegion5218"><rect
           id="rect5220"
           width="330"
           height="302"
           x="-814"
           y="98" /></flowRegion><flowPara
         id="flowPara5222">M</flowPara></flowRoot>    <flowRoot
       xml:space="preserve"
       id="flowRoot5224"
       style="font-style:normal;font-weight:normal;font-size:40px;line-height:125%;font-family:Sans;letter-spacing:0px;word-spacing:0px;fill:#000000;fill-opacity:1;stroke:none;stroke-width:1px;stroke-linecap:butt;stroke-linejoin:miter;stroke-opacity:1"
       transform="translate(643.00793,154.03003)"
       inkscape:export-xdpi="143"
       inkscape:export-ydpi="143"><flowRegion
         id="flowRegion5226"><rect
           id="rect5228"
           width="316"
           height="188"
           x="-608"
           y="-116" /></flowRegion><flowPara
         id="flowPara5230">P</flowPara></flowRoot>    <path
       sodipodi:type="star"
       style="opacity:1;fill:none;fill-opacity:1;fill-rule:nonzero;stroke:#000000;stroke-width:2.48766851;stroke-linecap:round;stroke-linejoin:round;stroke-miterlimit:0;stroke-dasharray:none;stroke-dashoffset:8.5;stroke-opacity:1"
       id="path5240"
       sodipodi:sides="6"
       sodipodi:cx="-3.4977913"
       sodipodi:cy="33.569256"
       sodipodi:r1="17.721615"
       sodipodi:r2="5.316484"
       sodipodi:arg1="0.2730087"
       sodipodi:arg2="0.79660748"
       inkscape:flatsided="false"
       inkscape:rounded="0"
       inkscape:randomized="0"
       d="M 13.567486,38.347533 0.21915586,37.37048 0.89673763,50.737358 -4.9312745,38.688839 -16.16854,45.959081 -8.6482216,34.887614 -20.563069,28.790978 -7.2147384,29.768032 -7.8923202,16.401153 -2.0643081,28.449673 9.1729573,21.179431 1.652639,32.250897 Z"
       transform="matrix(0.971838,-0.23564996,0.23564996,0.971838,-3.3470296,-1.0481447)"
       inkscape:transform-center-x="0.79231693"
       inkscape:transform-center-y="-2.3769508"
       inkscape:export-xdpi="143"
       inkscape:export-ydpi="143" />
    <flowRoot
       xml:space="preserve"
       id="flowRoot5248"
       style="font-style:normal;font-weight:normal;font-size:40px;line-height:125%;font-family:Sans;letter-spacing:0px;word-spacing:0px;fill:#000000;fill-opacity:1;stroke:none;stroke-width:1px;stroke-linecap:butt;stroke-linejoin:miter;stroke-opacity:1"
       transform="translate(-300,-300)"
       inkscape:export-xdpi="143"
       inkscape:export-ydpi="143"><flowRegion
         id="flowRegion5250"><rect
           id="rect5252"
           width="21.342136"
           height="75.409363"
           x="294"
           y="516.59064" /></flowRegion><flowPara
         id="flowPara5254" /></flowRoot>    <flowRoot
       xml:space="preserve"
       id="flowRoot5256"
       style="font-style:normal;font-weight:normal;font-size:40px;line-height:125%;font-family:Sans;letter-spacing:0px;word-spacing:0px;fill:#000000;fill-opacity:1;stroke:none;stroke-width:1px;stroke-linecap:butt;stroke-linejoin:miter;stroke-opacity:1"
       transform="translate(-300,-300)"
       inkscape:export-xdpi="143"
       inkscape:export-ydpi="143"><flowRegion
         id="flowRegion5258"><rect
           id="rect5260"
           width="24.561825"
           height="84.124847"
           x="340.69629"
           y="507.87515" /></flowRegion><flowPara
         id="flowPara5262" /></flowRoot>  </g>
</svg>
