P2
41 41
15
0 0 0 0 0 0 0 0 0 0 0 0 0 0 0 0 0 0 0 0 0 0 0 0 0 0 0 0 0 0 0 0 0 0 0 0 0 0 0 0 0
0 12 12 12 0 12 12 12 0 15 15 15 15 15 15 12 12 12 12 12 12 12 0 15 15 12 12 12 12 12 0 12 12 12 12 12 0 15 15 15 0
0 0 0 12 0 12 0 12 0 15 0 0 0 0 0 12 0 0 0 0 0 12 0 0 0 12 0 0 0 12 0 12 0 0 0 12 0 15 0 0 0
0 15 0 12 0 12 0 12 0 15 15 15 15 15 0 12 12 12 0 15 0 12 12 12 12 12 0 15 0 12 12 12 0 12 12 12 0 15 15 15 0
0 15 0 12 0 12 0 12 0 0 0 0 0 15 0 0 0 12 0 15 0 0 0 0 0 0 0 15 0 0 0 0 0 12 0 0 0 15 0 15 0
0 15 0 12 0 12 0 12 12 12 0 15 0 15 0 15 0 12 0 15 0 12 12 12 12 12 0 12 12 12 12 12 0 12 0 15 15 15 0 15 0
0 15 0 12 0 12 0 0 0 12 0 15 0 15 0 15 0 12 0 15 0 12 0 0 0 12 0 12 0 0 0 12 0 12 0 0 0 0 0 15 0
0 15 0 12 0 12 12 12 0 12 0 15 15 15 15 15 0 12 0 15 15 12 0 12 12 12 0 12 12 12 0 12 12 12 0 15 15 15 15 15 0
0 15 0 12 0 15 0 12 0 12 0 0 0 0 0 15 0 12 0 0 0 12 0 12 0 0 0 0 0 12 0 0 0 0 0 15 0 0 0 0 0
0 15 0 12 0 15 0 12 0 12 12 12 0 15 15 15 0 12 12 12 0 12 0 12 12 12 12 12 0 12 12 12 12 12 0 15 15 15 15 15 0
0 15 0 12 0 0 0 12 0 0 0 12 0 0 0 0 0 15 0 12 0 12 0 0 0 0 0 12 0 0 0 0 0 12 0 0 0 0 0 15 0
0 12 12 12 0 12 12 12 0 15 0 12 12 12 12 12 0 15 0 12 0 12 12 12 0 15 0 12 12 12 12 12 12 12 0 15 15 15 0 15 0
0 12 0 0 0 12 0 0 0 15 0 0 0 0 0 12 0 0 0 12 0 0 0 12 0 15 0 0 0 0 0 0 0 0 0 15 0 15 0 15 0
0 12 0 15 15 12 12 12 0 15 15 12 12 12 12 12 0 12 12 12 0 12 12 12 0 15 15 12 12 12 12 12 0 15 15 15 0 15 15 15 0
0 12 0 0 0 15 0 12 0 0 0 12 0 0 0 0 0 12 0 0 0 12 0 0 0 0 0 12 0 0 0 12 0 15 0 15 0 0 0 15 0
0 12 12 12 0 15 0 12 12 12 0 12 12 12 0 15 15 12 0 15 15 12 0 12 12 12 0 12 0 15 0 12 0 15 0 15 0 15 15 15 0
0 0 0 12 0 15 0 0 0 12 0 0 0 12 0 15 0 12 0 0 0 12 0 12 0 12 0 12 0 15 0 12 0 0 0 15 0 0 0 15 0
0 12 12 12 0 15 0 15 0 12 0 15 15 12 0 15 0 12 12 12 0 12 0 12 0 12 12 12 0 15 0 12 12 12 0 15 15 15 0 15 0
0 12 0 0 0 15 0 15 0 12 0 0 0 12 0 0 0 0 0 12 0 12 0 12 0 0 0 0 0 15 0 0 0 12 0 15 0 15 0 0 0
0 12 12 12 0 15 15 15 0 12 12 12 0 12 12 12 0 12 12 12 0 12 0 12 0 15 15 15 15 15 15 15 0 12 0 15 0 15 15 15 0
0 0 0 12 0 0 0 0 0 15 0 12 0 0 0 12 0 12 0 0 0 12 0 12 0 15 0 15 0 0 0 0 0 12 0 15 0 0 0 15 0
0 15 0 12 12 12 12 12 0 15 0 12 0 15 0 12 12 12 0 12 12 12 0 12 0 15 0 15 15 15 15 15 0 12 0 15 15 15 0 15 0
0 15 0 0 0 0 0 12 0 0 0 12 0 15 0 0 0 0 0 12 0 0 0 12 0 0 0 0 0 15 0 15 0 12 0 15 0 0 0 15 0
0 12 12 12 0 12 12 12 0 12 12 12 0 15 15 15 15 15 0 12 12 12 12 12 0 12 12 12 0 15 0 12 12 12 0 15 0 12 12 12 0
0 12 0 12 0 12 0 0 0 12 0 0 0 0 0 15 0 0 0 15 0 0 0 0 0 12 0 12 0 0 0 12 0 0 0 0 0 12 0 12 0
0 12 0 12 12 12 0 15 15 12 0 15 15 15 15 15 0 15 15 15 0 12 12 12 12 12 0 12 12 12 0 12 0 15 15 12 12 12 0 12 0
0 12 0 0 0 0 0 0 0 12 0 15 0 0 0 0 0 15 0 0 0 12 0 0 0 0 0 0 0 12 0 12 0 0 0 12 0 0 0 12 0
0 12 12 12 0 12 12 12 12 12 0 15 15 15 15 15 15 15 0 12 12 12 0 15 15 15 0 12 12 12 0 12 12 12 12 12 0 15 0 12 0
0 0 0 12 0 12 0 0 0 0 0 0 0 0 0 0 0 0 0 12 0 0 0 15 0 15 0 12 0 0 0 0 0 0 0 0 0 15 0 12 0
0 15 0 12 0 12 12 12 12 12 0 12 12 12 12 12 12 12 12 12 15 15 15 15 0 15 0 12 0 15 15 15 15 15 0 12 12 12 12 12 0
0 15 0 12 0 15 0 0 0 12 0 12 0 0 0 0 0 0 0 0 0 15 0 0 0 0 0 12 0 15 0 0 0 15 0 12 0 0 0 0 0
0 12 12 12 0 15 15 15 0 12 12 12 15 15 0 12 12 12 0 15 15 15 0 12 12 12 12 12 0 15 0 15 15 15 0 12 12 12 12 12 0
0 12 0 0 0 0 0 15 0 0 0 0 0 0 0 12 0 12 0 15 0 0 0 12 0 0 0 0 0 15 0 15 0 0 0 0 0 0 0 12 0
0 12 12 12 12 12 0 15 15 15 0 12 12 12 0 12 0 12 0 15 0 12 12 12 0 15 15 15 15 15 0 15 15 15 0 15 0 12 12 12 0
0 0 0 0 0 12 0 0 0 0 0 12 0 12 0 12 0 12 0 0 0 12 0 0 0 15 0 15 0 0 0 0 0 15 0 15 0 12 0 0 0
0 15 15 15 0 12 12 12 12 12 0 12 0 12 12 12 0 12 12 12 0 12 0 15 15 15 0 15 0 15 15 15 0 15 15 15 0 12 12 12 0
0 15 0 0 0 0 0 0 0 12 0 12 0 0 0 0 0 0 0 12 0 12 0 15 0 15 0 15 0 15 0 15 0 15 0 0 0 0 0 12 0
0 15 15 15 15 15 15 15 0 12 0 12 0 15 0 15 15 15 0 12 0 12 0 15 0 15 0 15 0 15 0 15 0 15 0 12 12 12 12 12 0
0 15 0 0 0 0 0 15 0 12 0 12 0 15 0 15 0 15 0 12 0 12 0 15 0 15 0 0 0 15 0 15 0 0 0 12 0 0 0 0 0
0 15 15 15 15 15 0 15 15 12 12 12 0 15 15 15 0 15 15 12 12 12 0 15 0 15 15 15 15 15 0 15 15 15 15 12 12 12 12 12 0
0 0 0 0 0 0 0 0 0 0 0 0 0 0 0 0 0 0 0 0 0 0 0 0 0 0 0 0 0 0 0 0 0 0 0 0 0 0 0 0 0
